<svg xmlns="http://www.w3.org/2000/svg" width="493.747" height="176.085" viewBox="0 0 493.747 176.085"><defs><style>.a{fill:#e3efff;}.a,.aa,.ab,.ac,.ad,.af,.ag,.ah,.ai,.aj,.ak,.al,.ao,.ap,.at,.b,.c,.d,.e,.f,.g,.h,.i,.m,.p,.q,.r,.s,.t,.u,.v,.w,.z{fill-rule:evenodd;}.a,.i{opacity:0.5;}.b{fill:#f8b4b1;}.c{fill:#07085b;}.d{fill:#57abe4;}.e{fill:#b6d7f6;}.f{fill:#469add;}.g{fill:#026eae;}.h{fill:#02cbbf;}.i{fill:#ebf4ff;}.j{fill:#142666;}.k,.m{fill:#70bffc;}.l,.p{fill:#fff;}.af,.n{fill:#4187e3;}.o{fill:#86c1f6;}.q{fill:#ddcac9;}.r{fill:#02ab97;}.s{fill:#f7d6c9;}.t{fill:#00a998;}.u{fill:#f3a540;}.v{fill:#202121;}.w{fill:#333;}.x{fill:#183658;}.y{fill:#fde3ca;}.z{fill:#ffbfba;}.aa{fill:#f89792;}.ab,.ae{fill:#09083c;}.ac{fill:#59acf8;}.ad{fill:#80c9ee;}.ag{fill:#ee5487;}.ah{fill:#090730;}.ai{fill:#e9426e;}.aj{fill:#f6638f;}.ak{fill:#d9edf6;}.al{fill:#fca7a2;}.am{fill:#96cdf6;}.an{fill:#429af4;}.ao{fill:#ef5472;}.ap{fill:#fdb446;}.aq{fill:#edbb9b;}.ar{fill:#c8e9fc;}.as{fill:#466eb5;}.at{fill:#d5c5c3;}</style></defs><g transform="translate(-1156.968 -215.999)"><path class="a" d="M3171.8,390.222C3087,216,3255.582,216,3396,216s310.5,0,222.558,173.6Z" transform="translate(-1992)"/><path class="b" d="M3579.275,335.536l-.506,4.636a25.742,25.742,0,0,1,2.685.468c.814.233,3.12-4.321,3.12-4.321s-2.462-1.056-2.577-1.056S3579.275,335.536,3579.275,335.536Z" transform="translate(-1992)"/><path class="c" d="M3605.848,356.978l2.29,32.717h-1.145l-3.624-32.363Z" transform="translate(-1992)"/><path class="c" d="M3581.8,356.978l-2.29,32.717h1.145l3.624-32.363Z" transform="translate(-1992)"/><path class="d" d="M3615.839,321.582s-18.3-.541-19.481-.457-2.28,3.892-2.28,3.892-5.346,19.832-5.238,20.377-4.988,13.324-4.988,13.324,4.394-.117,4.589,0,16.989-1.442,17.222-1.6a21.611,21.611,0,0,0,1.128-3.234c.037-.156,1.32-11.533,1.32-11.533l.662-6.272s2.527-5.382,2.567-5.4,2.371-4.731,2.526-4.965,2.567-2.843,2.645-3.078S3615.839,321.582,3615.839,321.582Z" transform="translate(-1992)"/><path class="e" d="M3615.839,321.582h0Zm0,0h0Zm0,0Zm0,0Zm0,0h0Z" transform="translate(-1992)"/><path class="f" d="M3588.918,357.646a54.246,54.246,0,0,0,6.5-1.982v1.36c-1,.108-2.1.221-3.32.337-1.081.1-2.151.2-3.181.285Zm8.109-.8v-1.866c1.989-.94,3.408-2.007,3.722-3.194l-.183-.194c.243.125.372.194.372.194.006-.292.013-.583.02-.87a2.935,2.935,0,0,0,.648-.878c.646-1.329,1.193-2.614,1.666-3.862h2.847c-.092,1.063-.163,2.071-.23,3.007a43.611,43.611,0,0,1-.6,5.606,1.125,1.125,0,0,1-.756.8,47.4,47.4,0,0,1-7.5,1.258Zm9.358-13.476h-2.148a69.609,69.609,0,0,0,2.27-11.177c.882-6.2-.307-9.684-2.425-10.931,5.3.134,11.422.314,11.743.324h.014l.027.028a1.147,1.147,0,0,0-.645.277C3609.1,327.276,3607.193,336.1,3606.385,343.366Z" transform="translate(-1992)"/><path class="g" d="M3580.508,359.417h0a1.139,1.139,0,0,1,1.057-1.208c1.956-.132,6.184-.435,10.534-.847,8.336-.792,11.351-1.439,12.429-1.777a1.125,1.125,0,0,0,.756-.8,43.611,43.611,0,0,0,.6-5.606c.547-7.679,1.445-20.34,9.332-27.292a1.139,1.139,0,0,1,1.5,1.711c-7.187,6.31-8.012,17.948-8.566,25.741-.314,4.444-.51,6.624-1.479,7.639-.469.489-1.34,1.4-14.016,2.618-4.5.432-8.923.749-10.943.886A1.137,1.137,0,0,1,3580.508,359.417Z" transform="translate(-1992)"/><path class="h" d="M3581.055,343.288s.5-17.61,1.432-19.635,4.219-2.416,4.219-2.416,8.578-1.274,10.807.833c.165.157,4.043,5.3,3.425,29.712,0,0-7.366-4.052-19.883-6.13Z" transform="translate(-1992)"/><path class="i" d="M3463.393,295.857H3431.3l14.739-32.561h32.09Z" transform="translate(-1992)"/><path class="i" d="M3500.376,295.857h-32.091l14.738-32.561h32.092Z" transform="translate(-1992)"/><path class="i" d="M3447.176,331.681h-32.09l3.529-7.8c.12-.112.243-.223.367-.332a1.135,1.135,0,0,0,.328-1.2l10.516-23.232h32.09Z" transform="translate(-1992)"/><path class="i" d="M3484.158,331.681h-32.089l14.74-32.562H3498.9l-3.526,7.8a8.449,8.449,0,0,0-2.337-.334,8.585,8.585,0,0,0-4.006,1.012c-2.549,1.341-4.015,2.764-4.937,6.356-1.081,4.224-.378,7.29-.378,10.781,0,2.707.881,3.717,1.556,4.3-.057.172-.108.349-.151.531Z" transform="translate(-1992)"/><rect class="j" width="4.16" height="16.864" transform="translate(1378.486 275.862)"/><rect class="k" width="16.828" height="3.313" transform="translate(1402.336 289.215)"/><rect class="j" width="16.829" height="3.313" transform="translate(1404.574 285.891)"/><rect class="l" width="16.828" height="3.313" transform="translate(1401.092 282.65)"/><rect class="l" width="4.254" height="23.407" transform="translate(1383.203 269.069)"/><rect class="k" width="3.918" height="20.827" transform="translate(1374.075 271.649)"/><path class="m" d="M3392.1,290.56l-3.52,1.722-9.118-18.716,3.521-1.722Z" transform="translate(-1992)"/><rect class="n" width="67.29" height="1.905" transform="translate(1370.965 292.359)"/><rect class="j" width="3.695" height="14.978" transform="translate(1531.609 279.151)"/><rect class="l" width="14.947" height="2.942" transform="translate(1540.914 291.011)"/><rect class="o" width="14.947" height="2.943" transform="translate(1542.903 288.058)"/><rect class="j" width="14.947" height="2.943" transform="translate(1540.914 285.18)"/><rect class="k" width="3.778" height="20.791" transform="translate(1535.801 273.118)"/><rect class="l" width="3.48" height="18.499" transform="translate(1527.692 275.41)"/><rect class="j" width="3.695" height="14.978" transform="translate(1564.323 279.151)"/><rect class="k" width="3.778" height="20.791" transform="translate(1568.514 273.118)"/><rect class="l" width="3.48" height="18.499" transform="translate(1560.405 275.41)"/><path class="p" d="M3575.52,292.206l-3.127,1.529-8.1-16.624,3.127-1.529Z" transform="translate(-1992)"/><rect class="n" width="59.766" height="1.692" transform="translate(1524.929 293.803)"/><path class="l" d="M.262,0h9.832a.264.264,0,0,1,.264.264V.809a.262.262,0,0,1-.262.262H.264A.264.264,0,0,1,0,.807V.262A.262.262,0,0,1,.262,0Z" transform="matrix(0.907, -0.42, 0.42, 0.907, 1582.975, 388.921)"/><path class="h" d="M3582.582,381.813l1.557,2.56c.192.315.152.7-.088.812l-8.282,3.837a.662.662,0,0,1-.722-.147,1.328,1.328,0,0,1-.324-1.313c.239-1.4,2.475-2.762,3.282-4.2a.291.291,0,0,1,.125-.118l3.776-1.749A.573.573,0,0,1,3582.582,381.813Z" transform="translate(-1992)"/><path class="p" d="M3579.36,384.577h0a.215.215,0,0,0-.054-.242,1.765,1.765,0,0,0-2.209-.3.167.167,0,0,0-.007.218v0c.047.077.125.105.179.068a1.517,1.517,0,0,1,1.925.252C3579.255,384.633,3579.322,384.632,3579.36,384.577Z" transform="translate(-1992)"/><path class="p" d="M3578.661,385.324h0a.209.209,0,0,0-.058-.242,1.758,1.758,0,0,0-2.205-.3.169.169,0,0,0-.007.219v0c.047.076.125.1.179.068a1.518,1.518,0,0,1,1.925.252A.105.105,0,0,0,3578.661,385.324Z" transform="translate(-1992)"/><path class="p" d="M3578.009,386.019h0a.2.2,0,0,0-.054-.242,1.76,1.76,0,0,0-2.206-.3.164.164,0,0,0-.01.218l0,0c.044.077.125.105.175.068a1.524,1.524,0,0,1,1.929.252A.1.1,0,0,0,3578.009,386.019Z" transform="translate(-1992)"/><path class="q" d="M3584.25,384.654h0a.9.9,0,0,0-.091-.252A.9.9,0,0,1,3584.25,384.654Z" transform="translate(-1992)"/><path class="q" d="M3584.139,384.373l-.871-1.432,0,0Z" transform="translate(-1992)"/><path class="r" d="M3582.085,386.069a.294.294,0,0,1-.29-.273c-.169-1.888.523-2.652,1.1-2.962a.256.256,0,0,1,.125-.032.29.29,0,0,1,.243.138l.872,1.433.02.029a.9.9,0,0,1,.091.252c0,.009,0,.02,0,.03a.45.45,0,0,1-.2.5l-1.851.858A.266.266,0,0,1,3582.085,386.069Z" transform="translate(-1992)"/><path class="l" d="M.264,0h9.828a.265.265,0,0,1,.265.265V.808a.264.264,0,0,1-.264.264H.265A.265.265,0,0,1,0,.806V.264A.264.264,0,0,1,.264,0Z" transform="translate(1567.58 389.012) rotate(-15.447)"/><path class="h" d="M3568.242,383.243l1.121,2.78c.138.343.033.719-.22.788l-8.8,2.43a.669.669,0,0,1-.692-.264,1.336,1.336,0,0,1-.1-1.348c.463-1.337,2.9-2.319,3.925-3.61a.277.277,0,0,1,.142-.1l4.012-1.108C3567.856,382.752,3568.117,382.933,3568.242,383.243Z" transform="translate(-1992)"/><path class="p" d="M3564.614,385.443h0a.206.206,0,0,0-.017-.248,1.759,1.759,0,0,0-2.128-.654c-.06.028-.077.127-.043.213v0c.033.084.108.125.165.1a1.523,1.523,0,0,1,1.861.564A.1.1,0,0,0,3564.614,385.443Z" transform="translate(-1992)"/><path class="p" d="M3563.8,386.065h0a.207.207,0,0,0-.013-.248,1.76,1.76,0,0,0-2.128-.654.165.165,0,0,0-.044.213v0c.034.084.108.125.166.1a1.516,1.516,0,0,1,1.857.564C3563.689,386.1,3563.756,386.113,3563.8,386.065Z" transform="translate(-1992)"/><path class="p" d="M3563.047,386.644h0a.206.206,0,0,0-.017-.248,1.758,1.758,0,0,0-2.128-.654c-.06.029-.077.128-.044.214l0,0c.034.084.1.125.165.1a1.517,1.517,0,0,1,1.858.563A.1.1,0,0,0,3563.047,386.644Z" transform="translate(-1992)"/><path class="s" d="M3567.174,387.354l1.969-.543a.459.459,0,0,0,.281-.475.459.459,0,0,1-.281.475l-1.966.543Z" transform="translate(-1992)"/><path class="r" d="M3567.1,387.364a.3.3,0,0,1-.287-.321c.142-1.889.949-2.53,1.571-2.741a.266.266,0,0,1,.088-.014.288.288,0,0,1,.263.185l.625,1.55a.807.807,0,0,1,.061.313.459.459,0,0,1-.281.475l-1.969.543A.219.219,0,0,1,3567.1,387.364Z" transform="translate(-1992)"/><path class="t" d="M3583.055,336.319c.162-1.4.3-2.679.3-2.849,0-.389-1.06-9.817-1.06-9.817a42.773,42.773,0,0,0-3.225,12.077A6.928,6.928,0,0,0,3583.055,336.319Z" transform="translate(-1992)"/><path class="u" d="M3582.48,340.108l.125.064s.01-.1.031-.265C3582.585,339.975,3582.531,340.042,3582.48,340.108Z" transform="translate(-1992)"/><path class="v" d="M3582.6,345.652s-21.358,2.39-22.5,9.662,3.371,28.7,3.371,28.7,3.577-.236,4.924-1.068c0,0-1.347-23.9.622-25.454s12.752-5.3,12.962-5.714S3582.6,345.652,3582.6,345.652Z" transform="translate(-1992)"/><path class="w" d="M3582.6,345.652s-14.205,7.793-14.205,12.363,5.5,21.611,9.541,25.351a17.79,17.79,0,0,0,4.664-1.558l-4.873-22.026s21.669-2.909,23.017-8l-5.33-5.61Z" transform="translate(-1992)"/><rect class="x" width="1.607" height="43.999" transform="translate(1542.393 345.653)"/><rect class="x" width="1.607" height="43.999" transform="translate(1557.558 345.653)"/><rect class="x" width="1.607" height="43.999" transform="translate(1603.419 345.653)"/><rect class="x" width="1.608" height="43.999" transform="translate(1618.583 345.653)"/><path class="y" d="M.708,0H85.917a.709.709,0,0,1,.709.709V2.1a.708.708,0,0,1-.708.708H.709A.709.709,0,0,1,0,2.1V.708A.708.708,0,0,1,.708,0Z" transform="translate(1538.091 343.366)"/><path class="z" d="M3591.417,317.74v4.4a.629.629,0,0,1-.358.57,3.87,3.87,0,0,1-3.573.009.623.623,0,0,1-.3-.539V318.2Z" transform="translate(-1992)"/><path class="aa" d="M3591.417,320.1V317.74l-4.232.465v2A7.3,7.3,0,0,0,3591.417,320.1Z" transform="translate(-1992)"/><path class="aa" d="M3584.483,313.008a1.088,1.088,0,1,1-1.422-.929A1.219,1.219,0,0,1,3584.483,313.008Z" transform="translate(-1992)"/><path class="z" d="M3584.4,316.989a5.79,5.79,0,0,1-.358-.958,10.579,10.579,0,0,1-.388-2.644c0-.175-.021-.349-.037-.522a5.667,5.667,0,1,1,11.287-.206,1.221,1.221,0,0,1,1.1-.01,1.711,1.711,0,0,1-1.564,2.949,1.053,1.053,0,0,1-.243-.177,5.315,5.315,0,0,1-5.6,4.505,5.064,5.064,0,0,1-3.34-1.674,1.685,1.685,0,0,1-.179-.192A4.891,4.891,0,0,1,3584.4,316.989Z" transform="translate(-1992)"/><path class="w" d="M3589.8,312.8a.495.495,0,1,0,.533-.451A.5.5,0,0,0,3589.8,312.8Z" transform="translate(-1992)"/><path class="w" d="M3585.54,312.717a.495.495,0,1,0,.537-.452A.5.5,0,0,0,3585.54,312.717Z" transform="translate(-1992)"/><path class="w" d="M3589.286,311.771a4.54,4.54,0,0,1,.722-.173,2.439,2.439,0,0,1,.693-.007,2.237,2.237,0,0,1,.662.191l.081.033c.027.012.054.03.081.043l.162.085c.108.059.21.133.331.192a2.07,2.07,0,0,0-.219-.329,1.923,1.923,0,0,0-.294-.27,1.608,1.608,0,0,0-.76-.3,1.668,1.668,0,0,0-.807.091A1.513,1.513,0,0,0,3589.286,311.771Z" transform="translate(-1992)"/><path class="c" d="M3508.526,356.978l2.29,32.717h-1.145l-3.624-32.363Z" transform="translate(-1992)"/><path class="c" d="M3484.482,356.978l-2.29,32.717h1.145l3.624-32.363Z" transform="translate(-1992)"/><path class="d" d="M3518.516,321.582s-18.3-.541-19.48-.457-2.28,3.892-2.28,3.892-5.347,19.832-5.238,20.377-4.989,13.324-4.989,13.324,4.394-.117,4.587,0,16.991-1.442,17.224-1.6a21.5,21.5,0,0,0,1.128-3.234c.037-.156,1.321-11.533,1.321-11.533l.662-6.272s2.526-5.382,2.567-5.4,2.37-4.731,2.526-4.965,2.567-2.843,2.645-3.078S3518.516,321.582,3518.516,321.582Z" transform="translate(-1992)"/><path class="f" d="M3494.922,357.346c.963-.174,1.891-.347,2.756-.512v.234q-1.266.137-2.756.278Zm4.364-.455v-.375a5.473,5.473,0,0,0,4.123-4.7l.034.015c0-.259.01-.518.017-.772a2.921,2.921,0,0,0,.824-1.029c.642-1.329,1.192-2.614,1.665-3.862h2.844c-.088,1.063-.159,2.071-.226,3.007a43.19,43.19,0,0,1-.608,5.606,1.12,1.12,0,0,1-.753.8,49.64,49.64,0,0,1-7.92,1.307Zm9.777-13.525h-2.148c.1-.32.193-.637.28-.953a6.411,6.411,0,0,0,1.638-2.194,8.976,8.976,0,0,0,.1-6.286c.088-.587.169-1.168.254-1.744.878-6.2-.308-9.684-2.425-10.931,5.3.134,11.419.314,11.743.324h.013l.027.028a1.139,1.139,0,0,0-.645.277C3511.782,327.276,3509.87,336.1,3509.063,343.366Z" transform="translate(-1992)"/><path class="g" d="M3483.186,359.417h0a1.138,1.138,0,0,1,1.057-1.208c1.955-.132,6.184-.435,10.534-.847,8.335-.792,11.351-1.439,12.429-1.777a1.12,1.12,0,0,0,.753-.8,43.19,43.19,0,0,0,.608-5.606c.547-7.679,1.442-20.34,9.331-27.292a1.139,1.139,0,0,1,1.5,1.711c-7.187,6.31-8.011,17.948-8.565,25.741-.314,4.444-.51,6.624-1.479,7.639-.47.489-1.341,1.4-14.016,2.618-4.5.432-8.923.749-10.946.886A1.135,1.135,0,0,1,3483.186,359.417Z" transform="translate(-1992)"/><path class="w" d="M3587.293,311.7a1.566,1.566,0,0,0-.618-.49,1.682,1.682,0,0,0-.8-.147,1.577,1.577,0,0,0-.773.25,1.686,1.686,0,0,0-.314.25,2.273,2.273,0,0,0-.243.312c.128-.05.233-.117.344-.169l.169-.073c.027-.012.054-.027.081-.037l.088-.028a2.236,2.236,0,0,1,.672-.145,2.415,2.415,0,0,1,.689.055A4.608,4.608,0,0,1,3587.293,311.7Z" transform="translate(-1992)"/><path class="aa" d="M3588.225,312.212a6.558,6.558,0,0,0-.55.777,6.837,6.837,0,0,0-.453.844,2.57,2.57,0,0,0-.152.467.936.936,0,0,0-.013.133c0,.023,0,.05,0,.074a.383.383,0,0,0,.024.081c.01.014.017.029.027.042l.02.024a.465.465,0,0,0,.044.048,1.063,1.063,0,0,0,.094.083,2.25,2.25,0,0,0,.409.26,3.334,3.334,0,0,0,.443.183,5.22,5.22,0,0,1-.75-.557c-.03-.025-.051-.054-.078-.081l-.034-.042-.013-.02,0-.011a.349.349,0,0,1,.011-.179,2.332,2.332,0,0,1,.152-.428c.118-.285.263-.565.4-.847S3588.09,312.5,3588.225,312.212Z" transform="translate(-1992)"/><path class="w" d="M3593.511,305.435s-1.56-1.453-5.215-1.334-4.414,2.07-4.711,4.876l0,3.086s1.091-.712,2.412-3.47c0,0,1.969,2.432,2.867,2.177s-.273-2-.273-2,3.867,3.857,6.316,3.923c0,0,1.614-4.327-.156-5.971,0,0,1.371.108,1.452-.169s-.631-.716-1.955-.6c0,0,1-1.872.479-2.086S3593.511,305.435,3593.511,305.435Z" transform="translate(-1992)"/><path class="p" d="M3586.587,316.259a1.908,1.908,0,0,0,3.415-.033Z" transform="translate(-1992)"/><path class="ab" d="M3316.867,337.827H3209.552a2.123,2.123,0,0,1-2.123-2.124V270.562a2.122,2.122,0,0,1,2.123-2.123h108.33a1.109,1.109,0,0,1,1.108,1.108V335.7A2.123,2.123,0,0,1,3316.867,337.827Z" transform="translate(-1992)"/><path class="k" d="M.433,0H107.158a.433.433,0,0,1,.433.433V63.621a.433.433,0,0,1-.433.433H.434A.434.434,0,0,1,0,63.621V.433A.433.433,0,0,1,.433,0Z" transform="translate(1217.386 271.105)"/><path class="ac" d="M3209.386,315.157V271.846a.687.687,0,0,1,.616-.741h106.359a.688.688,0,0,1,.616.741v6.886Z" transform="translate(-1992)"/><path class="z" d="M3209.528,300.959l.011.877.1,2.182-4.295-.565-.468-.636-.037-1.658-.141-1.553h2.855Z" transform="translate(-1992)"/><path class="z" d="M3213.486,354.162a6.241,6.241,0,0,1,0,2.2c-.214,1.233-5.783,30.59-5.783,30.59l2.939.429s9.593-27.263,10.128-29.088,1.125-4.4-.7-6.386S3213.486,354.162,3213.486,354.162Z" transform="translate(-1992)"/><path class="z" d="M3215.034,387.8l-3.517-4.245L3208,385.018l.88,1.217,3.832,1.927s1.638.329,1.722.305A5.6,5.6,0,0,0,3215.034,387.8Z" transform="translate(-1992)"/><path class="c" d="M3215.034,387.8l.762.956a.563.563,0,0,1-.613.891l-7.381-2.454a.5.5,0,0,1-.315-.629l.513-1.547C3212.4,388.22,3214.251,388.307,3215.034,387.8Z" transform="translate(-1992)"/><path class="c" d="M3202.87,289.177a3.892,3.892,0,0,0-3.927,0c-2.09,1.2-2.09,5.268-1.267,6.24s-.042,2.288,1.6,3.557,4.269,1.735,5.766.253.4-4.791.4-4.791Z" transform="translate(-1992)"/><path class="z" d="M3210.07,388l-4.04-2.525-3.51,2.1,1.218.878,4.242.619s1.657-.2,1.731-.253A5.77,5.77,0,0,0,3210.07,388Z" transform="translate(-1992)"/><path class="z" d="M3200.322,351.378s.579,13.989.633,16.4,1.285,20.34,1.82,21.9l3-.214s2.046-34.706,1.4-38.087S3200.322,351.378,3200.322,351.378Z" transform="translate(-1992)"/><path class="z" d="M3193.9,339.952c-1.034-.213-1.292.454-2.336.236l.245,1.615c-.14.314-.454,1.153-.454,1.153-1.163,3.379-1.1,3.015-.983,3.078s.989-1.187,1.089-1.071-.5,2.127-.322,2.074.957-1.842,1.057-1.775-.5,2-.242,2.066.856-2.07,1.043-1.932-.477,2.314-.228,2.337c.21.02,1.011-2.395,1.261-3.165a.132.132,0,0,1,.228-.04c1,1.255,1.154,1.293,1.266,1.152a21.184,21.184,0,0,0-.847-2.773l-.544-1.591Z" transform="translate(-1992)"/><path class="c" d="M3210.07,388l1.024.667a.564.564,0,0,1-.3,1.039h-7.776a.5.5,0,0,1-.5-.5V387.58C3207.7,389.232,3209.486,388.729,3210.07,388Z" transform="translate(-1992)"/><path class="z" d="M3234.966,302.687a.125.125,0,0,0,.21.064,14.082,14.082,0,0,1,2.438-2.135c.2.128-1.3,1.684-1.2,1.882s1.527-1.355,1.721-1.184-1.158,1.545-1.1,1.646,1.491-1.077,1.664-1.045-1.2,1.477-1.169,1.618,1.315-.538,1.386-.434.135.16-2.313,2.518l-1,.887-1.21.281-.853-1.227s.7-4.323.859-4.4S3234.659,301.187,3234.966,302.687Z" transform="translate(-1992)"/><path class="ab" d="M3202.306,351.378l2.488,9.228c5.746-.006,14.319-.54,18.577-3.385,0,0-5.567-25.926-9.263-32.419l-12.692-.7s-8.8,12.286-2.376,36.329c0,0,1.1.081,2.853.132Z" transform="translate(-1992)"/><path class="aa" d="M3213.144,294.055a1.129,1.129,0,1,0,1.509-.914A1.267,1.267,0,0,0,3213.144,294.055Z" transform="translate(-1992)"/><path class="aa" d="M3204.65,299.213s.113.88.188,1.946a4.558,4.558,0,0,0,4.7.678,5.632,5.632,0,0,1,.088-1.648C3209.921,299.341,3204.65,299.213,3204.65,299.213Z" transform="translate(-1992)"/><path class="p" d="M3213.781,303.7l12.025,9.126,7.7-7.913s2.3,1.78,2.3,1.747-7.239,11.309-9.015,11.9-13.241-7.413-13.241-7.413Z" transform="translate(-1992)"/><path class="z" d="M3213.084,298.186a5.654,5.654,0,0,0,.408-.979,10.93,10.93,0,0,0,.5-2.73c.011-.181.033-.361.058-.54a5.882,5.882,0,1,0-11.7-.616,1.269,1.269,0,0,0-1.147-.05,1.777,1.777,0,0,0,1.519,3.116,1.123,1.123,0,0,0,.257-.176,5.518,5.518,0,0,0,5.653,4.873,5.269,5.269,0,0,0,3.526-1.616,2.338,2.338,0,0,0,.193-.194A5.089,5.089,0,0,0,3213.084,298.186Z" transform="translate(-1992)"/><path class="w" d="M3207.795,294.131a.553.553,0,1,1-.58-.526A.552.552,0,0,1,3207.795,294.131Z" transform="translate(-1992)"/><path class="w" d="M3212.33,294.131a.553.553,0,1,1-.58-.526A.552.552,0,0,1,3212.33,294.131Z" transform="translate(-1992)"/><path class="aa" d="M3209.482,293.075c0,.178,0,.357,0,.535s.015.355.032.531a3.772,3.772,0,0,0,.086.521,1.292,1.292,0,0,0,.2.471.437.437,0,0,0,.039.047l.045.046a.634.634,0,0,1,.049.051.477.477,0,0,1,.044.056.6.6,0,0,1,.11.266.66.66,0,0,1-.173.526,1.092,1.092,0,0,1-.456.3,1.552,1.552,0,0,1-.529.086,2.139,2.139,0,0,0,.262-.046,1.553,1.553,0,0,0,.249-.085,1.093,1.093,0,0,0,.415-.3.584.584,0,0,0,.139-.462.5.5,0,0,0-.095-.223.352.352,0,0,0-.039-.049.6.6,0,0,0-.043-.044l-.049-.049a.5.5,0,0,1-.047-.055,1.072,1.072,0,0,1-.132-.247,1.637,1.637,0,0,1-.078-.263,3.251,3.251,0,0,1-.071-.536A5.735,5.735,0,0,1,3209.482,293.075Z" transform="translate(-1992)"/><path class="p" d="M3215.379,315.623a7.472,7.472,0,0,0,1.528-5.715,10.9,10.9,0,0,0-2.144-5.106,4.394,4.394,0,0,0-3.481-1.821c-2.523-.047-6.551-.1-6.551-.1s-5.2-.571-6.843,1.46-7.223,16.128-7.54,22.859a69.435,69.435,0,0,0,1.331,14.667,17.471,17.471,0,0,0,2.661,0c.823-.126-.19-13.017.7-15.111s4.879-12.128,5.132-13.081l.989,5.253a5.422,5.422,0,0,1-.244,2.891c-.839,2.265-2.459,6.618-3.111,8.231,0,0,12.474,2.011,18.62-1.036l-.056-.237A42.087,42.087,0,0,1,3215.379,315.623Z" transform="translate(-1992)"/><path class="c" d="M3208.259,293.207a3.413,3.413,0,0,0-.777-.3,2.5,2.5,0,0,0-.806-.062,2.052,2.052,0,0,0-.4.075c-.065.017-.128.041-.193.063-.032.011-.062.027-.094.039s-.063.025-.094.041a4.167,4.167,0,0,0-.706.445,2.224,2.224,0,0,1,.633-.581,1.922,1.922,0,0,1,.4-.186,1.877,1.877,0,0,1,.433-.093,2.02,2.02,0,0,1,.867.112,2.1,2.1,0,0,1,.393.185A1.715,1.715,0,0,1,3208.259,293.207Z" transform="translate(-1992)"/><path class="c" d="M3210.486,293.207a1.742,1.742,0,0,1,.341-.261,2.142,2.142,0,0,1,.393-.185,2.024,2.024,0,0,1,.868-.112,1.882,1.882,0,0,1,.432.093,1.9,1.9,0,0,1,.4.186,2.229,2.229,0,0,1,.634.581,4.138,4.138,0,0,0-.707-.445,1,1,0,0,0-.094-.041c-.031-.012-.062-.028-.094-.039-.064-.022-.127-.046-.192-.063a2.069,2.069,0,0,0-.4-.075,2.492,2.492,0,0,0-.805.062A3.423,3.423,0,0,0,3210.486,293.207Z" transform="translate(-1992)"/><path class="z" d="M3203.756,302.817s3.969,5.039,4.813,6.859a13.134,13.134,0,0,0,2.432-6.715Z" transform="translate(-1992)"/><path class="ad" d="M3208.569,309.676c.108,1.748.175,3.5.214,5.249.023.876.029,1.751.041,2.627s0,1.752,0,2.628q0,.657-.018,1.314c-.01.438-.015.875-.028,1.313-.03.875-.054,1.751-.1,2.626-.094,1.75-.226,3.5-.479,5.234l.044-.656.049-.653c.026-.438.044-.875.067-1.312l.018-.327.012-.328.024-.655.025-.656.017-.656c.051-1.748.076-3.5.09-5.247s.021-3.5.024-5.249Z" transform="translate(-1992)"/><path class="ad" d="M3200.6,312.014c-.025.141-.046.283-.075.424s-.057.28-.094.419a5.549,5.549,0,0,1-.262.816,6.8,6.8,0,0,0,.194-.832c.053-.279.091-.561.128-.843.067-.564.1-1.132.118-1.7l.011-.426,0-.427c.005-.285-.014-.569-.018-.854,0-.142-.015-.285-.02-.426l-.022-.428c-.017-.284-.043-.568-.058-.854.047.282.087.565.128.848s.064.568.083.854l.026.428c.01.144.014.286.017.429l.006.43Z" transform="translate(-1992)"/><path class="c" d="M3213.711,288.642c-1.087-3.745-6.052-3.877-6.052-3.877-7.677.533-6.468,7.282-6.215,8.4a1.253,1.253,0,0,1,.9.157,2.139,2.139,0,0,1,.386.265c.9-.277,1.178-1.781,1.646-2.506.635-.984,3.435-.476,4.5-1.174a2.627,2.627,0,0,0,1.171-1.778c4.095.651,4.032,4.988,4.032,4.988a1.5,1.5,0,0,1,.4-.02S3214.683,291.987,3213.711,288.642Z" transform="translate(-1992)"/><path class="p" d="M3210.988,297.162a1.822,1.822,0,0,1-3.259.035Z" transform="translate(-1992)"/><path class="ab" d="M3411.043,243.073A15.043,15.043,0,1,1,3396,228,15.059,15.059,0,0,1,3411.043,243.073Z" transform="translate(-1992)"/><path class="p" d="M3408.855,242.265a12.88,12.88,0,1,1-13.662-12.073A12.9,12.9,0,0,1,3408.855,242.265Z" transform="translate(-1992)"/><rect class="ae" width="4.748" height="0.366" transform="translate(1390.148 242.819)"/><rect class="ae" width="4.748" height="0.366" transform="translate(1413.133 242.819)"/><rect class="ae" width="0.365" height="4.758" transform="translate(1403.797 229.29)"/><rect class="ae" width="0.365" height="4.759" transform="translate(1403.797 252.231)"/><path class="ab" d="M3396.393,243.073a.393.393,0,1,1-.393-.393A.393.393,0,0,1,3396.393,243.073Z" transform="translate(-1992)"/><path class="ab" d="M3396,243.249a.179.179,0,0,1-.125-.051l-7.062-7.077a.176.176,0,0,1,.248-.25l7.063,7.078a.178.178,0,0,1,0,.249A.175.175,0,0,1,3396,243.249Z" transform="translate(-1992)"/><path class="ab" d="M3398.271,250.226a.129.129,0,0,1-.065-.074l-2.282-6.91a.128.128,0,1,1,.243-.081l2.282,6.911a.127.127,0,0,1-.081.161A.125.125,0,0,1,3398.271,250.226Z" transform="translate(-1992)"/><path class="z" d="M3591.545,327.419l0-.018Z" transform="translate(-1992)"/><path class="z" d="M3591.657,327.033l.006-.024Z" transform="translate(-1992)"/><path class="z" d="M3591.768,326.655l0-.013Z" transform="translate(-1992)"/><path class="z" d="M3591.964,325.969l0-.012Z" transform="translate(-1992)"/><path class="z" d="M3592.211,325.1c0-.01,0-.018.006-.028C3592.214,325.08,3592.214,325.088,3592.211,325.1Z" transform="translate(-1992)"/><path class="z" d="M3595.179,339.309a11.444,11.444,0,0,1-6.836-2.9h0a1.238,1.238,0,0,1-.358.412c-1.242.7-16.978,4.071-18.534,3.935s-3.02,1.416-3.331,2.61h26.374S3595.264,339.157,3595.179,339.309Z" transform="translate(-1992)"/><path class="z" d="M3592.136,325.364l0-.019Z" transform="translate(-1992)"/><path class="z" d="M3592.049,325.668l.009-.039Z" transform="translate(-1992)"/><path class="t" d="M3593.366,322.966a4.545,4.545,0,0,0-1.155,2.03c-.676,2.411-3.01,9.451-4.189,11.323,0,0,3.145,3.165,7.161,3.327a24.842,24.842,0,0,0,3.107-9.473C3598.813,324.081,3595.973,320.367,3593.366,322.966Z" transform="translate(-1992)"/><path class="af" d="M3421.778,281.293a4.578,4.578,0,0,0-.392-1.605,6.607,6.607,0,0,0-1.335-1.5,8.34,8.34,0,0,1-1.988-3.171,22.022,22.022,0,0,0-.916-2.769c-.268-.53-.634-1-.938-1.515-.718-1.206-1.111-2.631-2.086-3.641a4.383,4.383,0,0,0,.989,3.463,5.811,5.811,0,0,1,.7.853,4.407,4.407,0,0,1,.341,1.961,8.6,8.6,0,0,0,1.03,3.605,16.784,16.784,0,0,1,1.905,3.515c.256.969.18,2.057.727,2.9a.771.771,0,0,1,.142.291.653.653,0,0,1-.011.182c-.012.078-.025.156-.038.234-.123.794-.252,1.8.43,2.4a.882.882,0,0,0,1.42-.126,3.617,3.617,0,0,0,.286-1.975C3422,283.354,3421.894,282.319,3421.778,281.293Z" transform="translate(-1992)"/><path class="m" d="M3423.006,280.655c-.266-.918-.677-1.793-.883-2.727a12.829,12.829,0,0,1-.2-2.77q0-1.524,0-3.049a11.509,11.509,0,0,0-.1-1.893c-.225-1.343-.923-2.584-1.041-3.94-.052-.587.009-1.18-.056-1.765a2.78,2.78,0,0,0-.278-.973.434.434,0,0,0-.777.022,3.962,3.962,0,0,0-.417,2.316,9.284,9.284,0,0,0,.44,1.366c.679,2.022.318,4.26.844,6.328a9.407,9.407,0,0,1,.427,1.88c.067,1.54-1.083,2.946-.978,4.484.087,1.261.993,2.3,1.373,3.509.214.675.259,1.4.488,2.064.177.52.589,1.152,1.23.994.608-.15.424-.646.4-1.12A20.847,20.847,0,0,0,3423.006,280.655Z" transform="translate(-1992)"/><path class="af" d="M3424.4,281.5a7.39,7.39,0,0,1-.04-1.431,8.366,8.366,0,0,1,.329-1.163,10.5,10.5,0,0,0,.317-2.243l.282-4.117a53.5,53.5,0,0,1,.691-6.371,2.8,2.8,0,0,0-.028-1.748c-.054-.112-.164-.231-.283-.194-.085.027-.126.121-.158.2-.871,2.369-1.2,4.92-2.173,7.249a9.294,9.294,0,0,0-.625,1.7,9.66,9.66,0,0,0-.047,2.172,10.244,10.244,0,0,1-.362,3.092,12.9,12.9,0,0,0-.434,1.574,8.246,8.246,0,0,0,.048,2.033,31.173,31.173,0,0,1,.125,3.914c-.023.768.624.748,1.054.276a2.192,2.192,0,0,0,.4-1.1C3423.831,283.994,3424.48,282.958,3424.4,281.5Z" transform="translate(-1992)"/><path class="m" d="M3420.349,283.579c-.574-.921-1.715-1.444-2.081-2.466-.093-.259-.13-.539-.244-.79a2.564,2.564,0,0,0-1.393-1.131.12.12,0,0,0-.169.107.411.411,0,0,0,.177.345,2.3,2.3,0,0,1,.914,1.246c.174.6.1,1.255.316,1.839.182.49.557.892.733,1.384a7.854,7.854,0,0,1,.22,1.416,1.493,1.493,0,0,0,.719,1.173C3421.111,287.426,3420.718,284.173,3420.349,283.579Z" transform="translate(-1992)"/><path class="af" d="M3426.877,283.275a3.882,3.882,0,0,1-.13,1.322,4.017,4.017,0,0,1-.476.707c-.578.818-.788,1.976-1.676,2.436a.306.306,0,0,1-.189.045.289.289,0,0,1-.187-.189,2.511,2.511,0,0,1,.171-1.612.4.4,0,0,0,0-.283c-.049-.094-.16-.135-.236-.209a.688.688,0,0,1-.108-.6,13.674,13.674,0,0,1,.317-1.555,2.71,2.71,0,0,1,.333-.831,3.609,3.609,0,0,1,.7-.694,8.324,8.324,0,0,0,2.426-3.582,2.361,2.361,0,0,1,.406-.849.678.678,0,0,1,.848-.173c.184.129-.569,1.34-.656,1.485a4.827,4.827,0,0,0-.4,1.235C3427.681,281.056,3426.944,282.066,3426.877,283.275Z" transform="translate(-1992)"/><path class="m" d="M3426,283.789a5.456,5.456,0,0,0,.384-1.307c.061-.5-.019-1.016.066-1.515a16.541,16.541,0,0,1,.669-1.83,11.768,11.768,0,0,0,.247-1.386c.231-1.325.853-2.619.674-3.951-.038-.29-.169-.628-.457-.677a.557.557,0,0,0-.566.449,2.458,2.458,0,0,0,0,.79,3.259,3.259,0,0,1-.584,2.091c-.409.578-1,1.014-1.37,1.62a9.452,9.452,0,0,0-.743,2.488c-.459,1.668-1.608,3.123-1.817,4.84a1.661,1.661,0,0,0,.707,1.787C3425.039,287.977,3425.589,284.858,3426,283.789Z" transform="translate(-1992)"/><path class="p" d="M3422.813,285.045h-4.184a.443.443,0,0,0-.431.546l1.525,6.434a.444.444,0,0,0,.431.341h5.028a.444.444,0,0,0,.431-.341l1.525-6.434a.442.442,0,0,0-.43-.546Z" transform="translate(-1992)"/><path class="w" d="M3484.091,313.948c.922-3.592,2.388-5.015,4.937-6.356a8.426,8.426,0,0,1,6.627-.591c4.826,1.563,6.069,6.852,6.559,9.587,1.662,9.322,9.457,17.252,6.619,23.631s-16.153,5.7-16.153,5.7l-6.107-4.4s-.544-10.718-.547-11.593-2.313-.811-2.313-5.193C3483.713,321.238,3483.01,318.172,3484.091,313.948Z" transform="translate(-1992)"/><path class="z" d="M3467.917,327.134a.136.136,0,0,1-.219.1c-.662-.516-2.754-2.131-2.923-1.992-.2.165,1.632,1.652,1.552,1.881s-1.833-1.268-2.02-1.057,1.456,1.522,1.408,1.639-1.756-.971-1.941-.912,1.5,1.44,1.481,1.6-1.5-.409-1.56-.287-.125.191,2.838,2.424l1.2.829,1.348.145.765-1.442s-1.322-4.594-1.509-4.654S3468.053,325.468,3467.917,327.134Z" transform="translate(-1992)"/><path class="ag" d="M3488.083,325.029s-10.325,11.712-10.762,11.764-7.355-8.054-7.355-8.054a24.039,24.039,0,0,0-2.911,2.78s7.394,12.323,9.292,13.023,14.505-11.2,14.505-11.2Z" transform="translate(-1992)"/><path class="u" d="M3486.877,340.108l.125.064s.01-.1.031-.265C3486.982,339.975,3486.928,340.042,3486.877,340.108Z" transform="translate(-1992)"/><path class="z" d="M3496.445,325.141a4.312,4.312,0,0,0-1.087,1.91c-.7,2.521-3.05,10.7-4.04,11.255-1.168.66-15.962,3.829-17.424,3.7a3.407,3.407,0,0,0-3.131,2.454h24.8s4.962-6.11,5.512-12.542C3501.565,326.19,3498.894,322.7,3496.445,325.141Z" transform="translate(-1992)"/><path class="z" d="M3494.547,320.367V324.5a.592.592,0,0,1-.341.537,3.636,3.636,0,0,1-3.357.008.589.589,0,0,1-.28-.507V320.8Z" transform="translate(-1992)"/><path class="aa" d="M3494.547,322.581v-2.214l-3.978.438v1.878A6.848,6.848,0,0,0,3494.547,322.581Z" transform="translate(-1992)"/><path class="z" d="M3487.951,319.66a5.163,5.163,0,0,1-.338-.9,9.873,9.873,0,0,1-.364-2.486c0-.164-.017-.327-.034-.491a5.28,5.28,0,0,1,.182-2.048,5.326,5.326,0,0,1,10.43,1.856,1.14,1.14,0,0,1,1.036-.009,1.608,1.608,0,0,1-1.469,2.772.97.97,0,0,1-.226-.166,5,5,0,0,1-5.269,4.234,4.781,4.781,0,0,1-3.144-1.572c-.054-.053-.108-.113-.166-.182A4.72,4.72,0,0,1,3487.951,319.66Z" transform="translate(-1992)"/><path class="w" d="M3492.757,316.38a.429.429,0,1,0,.463-.391A.43.43,0,0,0,3492.757,316.38Z" transform="translate(-1992)"/><path class="w" d="M3489.076,316.306a.429.429,0,1,0,.462-.391A.429.429,0,0,0,3489.076,316.306Z" transform="translate(-1992)"/><path class="w" d="M3492.315,315.488a4.252,4.252,0,0,1,.628-.15,2.141,2.141,0,0,1,.6-.006,1.954,1.954,0,0,1,.57.166l.071.029c.024.01.048.025.071.036l.142.074c.095.052.179.115.284.167a1.758,1.758,0,0,0-.189-.285,1.616,1.616,0,0,0-.254-.234,1.407,1.407,0,0,0-.655-.263,1.473,1.473,0,0,0-.7.079A1.357,1.357,0,0,0,3492.315,315.488Z" transform="translate(-1992)"/><path class="w" d="M3490.592,315.429a1.327,1.327,0,0,0-.537-.425,1.453,1.453,0,0,0-.692-.127,1.4,1.4,0,0,0-.672.217,1.47,1.47,0,0,0-.271.216,1.966,1.966,0,0,0-.209.271c.108-.044.2-.1.3-.146l.146-.064c.027-.01.047-.024.074-.033l.071-.023a1.977,1.977,0,0,1,.584-.126,2.112,2.112,0,0,1,.595.048A3.832,3.832,0,0,1,3490.592,315.429Z" transform="translate(-1992)"/><path class="aa" d="M3491.4,315.869a6.793,6.793,0,0,0-.473.673,6.15,6.15,0,0,0-.392.731,2.511,2.511,0,0,0-.131.4c-.007.037-.01.075-.014.115,0,.02,0,.042,0,.063a.284.284,0,0,0,.023.07.186.186,0,0,0,.021.037l.016.021c.014.014.027.029.041.042a.922.922,0,0,0,.081.071,1.894,1.894,0,0,0,.354.225,2.58,2.58,0,0,0,.382.157,4.4,4.4,0,0,1-.648-.48c-.024-.022-.044-.047-.068-.071l-.027-.036-.013-.018,0-.009a.317.317,0,0,1,.007-.154,2.359,2.359,0,0,1,.132-.371c.1-.247.229-.489.347-.733S3491.281,316.119,3491.4,315.869Z" transform="translate(-1992)"/><path class="z" d="M3481.051,379.94l.243,6.128-2.943.02-.281-5.788Z" transform="translate(-1992)"/><path class="p" d="M3473.542,389.587l8.462.058a.322.322,0,0,0,.33-.325v-.245a.34.34,0,0,0-.337-.33l-8.463-.057a.324.324,0,0,0-.332.325l0,.244A.336.336,0,0,0,3473.542,389.587Z" transform="translate(-1992)"/><path class="ab" d="M3481.889,386.01l.324,2.505c.04.309-.135.589-.365.587l-8.047-.055a.6.6,0,0,1-.529-.371,1.069,1.069,0,0,1,.216-1.115c.711-.992,3.076-1.22,4.226-2.064l3.749.026C3481.673,385.524,3481.852,385.73,3481.889,386.01Z" transform="translate(-1992)"/><path class="p" d="M3478.3,386.956h0a.169.169,0,0,0,.043-.2,1.582,1.582,0,0,0-1.665-1.017c-.059.009-.1.085-.086.162v0c.01.075.063.125.119.116a1.366,1.366,0,0,1,1.456.883A.094.094,0,0,0,3478.3,386.956Z" transform="translate(-1992)"/><path class="p" d="M3477.463,387.271h0a.162.162,0,0,0,.044-.2,1.584,1.584,0,0,0-1.665-1.018.139.139,0,0,0-.087.163v0c.01.075.063.125.119.116a1.365,1.365,0,0,1,1.456.883C3477.359,387.276,3477.415,387.3,3477.463,387.271Z" transform="translate(-1992)"/><path class="p" d="M3476.689,387.567h0a.165.165,0,0,0,.043-.2,1.581,1.581,0,0,0-1.665-1.017.139.139,0,0,0-.086.163v0c.011.075.063.125.119.116a1.365,1.365,0,0,1,1.456.883A.093.093,0,0,0,3476.689,387.567Z" transform="translate(-1992)"/><path class="q" d="M3482.206,388.73Zm0-.006Zm0,0a.52.52,0,0,0,.007-.193.52.52,0,0,1-.007.193Zm.007-.206L3482,386.9h0Z" transform="translate(-1992)"/><path class="ah" d="M3481.848,389.1h0l-2.148-.015c.568-1.861,1.54-2.189,2.155-2.189.054,0,.1,0,.149.006l.209,1.611v.013a.52.52,0,0,1-.007.193v0h0v.006h0A.407.407,0,0,1,3481.848,389.1Z" transform="translate(-1992)"/><path class="z" d="M3467.2,379.94l.245,5.863-2.944.02-.281-5.523Z" transform="translate(-1992)"/><path class="p" d="M3459.688,389.587l8.462.058a.325.325,0,0,0,.332-.325l0-.245a.338.338,0,0,0-.338-.33l-8.461-.057a.323.323,0,0,0-.332.325v.244A.336.336,0,0,0,3459.688,389.587Z" transform="translate(-1992)"/><path class="ab" d="M3468.035,386.01l.325,2.505c.04.309-.135.589-.366.587l-8.046-.055a.6.6,0,0,1-.53-.371,1.071,1.071,0,0,1,.216-1.115c.712-.992,3.077-1.22,4.227-2.064l3.749.026A.5.5,0,0,1,3468.035,386.01Z" transform="translate(-1992)"/><path class="p" d="M3464.443,386.956h0a.168.168,0,0,0,.043-.2,1.581,1.581,0,0,0-1.665-1.017c-.058.009-.1.085-.086.162v0c.01.075.063.125.119.116a1.364,1.364,0,0,1,1.456.883A.094.094,0,0,0,3464.443,386.956Z" transform="translate(-1992)"/><path class="p" d="M3463.609,387.271h0a.163.163,0,0,0,.045-.2,1.585,1.585,0,0,0-1.666-1.018.138.138,0,0,0-.086.163v0c.01.075.063.125.118.116a1.367,1.367,0,0,1,1.457.883C3463.5,387.276,3463.562,387.3,3463.609,387.271Z" transform="translate(-1992)"/><path class="p" d="M3462.835,387.567h0a.165.165,0,0,0,.044-.2,1.581,1.581,0,0,0-1.665-1.017.137.137,0,0,0-.086.163v0c.01.075.063.125.119.116a1.364,1.364,0,0,1,1.455.883A.094.094,0,0,0,3462.835,387.567Z" transform="translate(-1992)"/><path class="q" d="M3468.353,388.73Zm0-.006Zm0,0a.657.657,0,0,0,.007-.193.657.657,0,0,1-.007.193Zm.006-.206-.209-1.611h0Z" transform="translate(-1992)"/><path class="ah" d="M3468,389.1h0l-2.148-.015c.568-1.861,1.541-2.189,2.156-2.189.053,0,.1,0,.149.006l.209,1.611v.013a.657.657,0,0,1-.007.193v0h0v.006h0A.408.408,0,0,1,3468,389.1Z" transform="translate(-1992)"/><path class="ab" d="M3479.372,347.944s-14.644.053-16.905,3-3.977,22.828,0,31.525c0,0,5.153.182,6.329-.543,0,0-.362-14.676-.181-18.571s2.893-4.439,3.255-4.8S3479.372,347.944,3479.372,347.944Z" transform="translate(-1992)"/><path class="ab" d="M3481.027,369.28c-.131-1.224-.3-2.815-.488-4.615-.332-3.535-.749-5.654-.306-5.611,3.527.341,13.125-1.372,18.792-2.48a5.411,5.411,0,0,0,3.891-7.606,3.748,3.748,0,0,0-.7-1.024c-2.648-2.643-8.113-1.8-8.106-2.165C3463.189,348.36,3470,353.668,3472.9,372c.017.078.033.157.049.235,1.258,6.061,2.446,11.049,2.446,11.049a33.833,33.833,0,0,0,7.141-.453C3482.54,382.856,3481.723,375.7,3481.027,369.28Z" transform="translate(-1992)"/><path class="ai" d="M3500.1,324.413c-1.006-.952-3.394-1.169-5.6-1.139l.05.022a2.708,2.708,0,0,1-3.978.253c-.4.047-.629.081-.629.081a9.91,9.91,0,0,0-3.046,2.663,7.623,7.623,0,0,0-1.891,4c-.118,1.539,1.854,3.785,1.854,4.664s-.909,7.252-.909,7.252l.341-.044v.044a5.446,5.446,0,0,1-1.6.3c-.041,1.139-.061,1.848-.061,1.848v2.221a79.07,79.07,0,0,1,18.815,5.251C3504.024,328.887,3500.258,324.562,3500.1,324.413Z" transform="translate(-1992)"/><path class="aj" d="M3496.445,325.141a4.312,4.312,0,0,0-1.087,1.91c-.7,2.521-3.05,10.7-4.04,11.255-.928.524-10.471,2.635-15.078,3.414,0,0,.338,1.373.641,2.74h18.679s4.962-6.11,5.512-12.542C3501.565,326.19,3498.894,322.7,3496.445,325.141Z" transform="translate(-1992)"/><path class="c" d="M3439.237,326.92H3461.5l6.313,15.441h10.725a.544.544,0,0,1,0,1.088h-31.9Z" transform="translate(-1992)"/><path class="ak" d="M3450.277,335.731a1.071,1.071,0,1,0,.8-1.4A1.145,1.145,0,0,0,3450.277,335.731Z" transform="translate(-1992)"/><path class="w" d="M3489.018,309.442s5.982,5.52,8.809,6.149c0,0,.374-4.28.337-4.427a34.469,34.469,0,0,0-3.8-3.48c-.22.037-6.654.953-6.654.953l-1.763,4.358Z" transform="translate(-1992)"/><path class="w" d="M3485.627,310.615l1.561,4.423a17.494,17.494,0,0,0,4.357-4.423c1.209-2.2-3.138-1.392-3.138-1.392Z" transform="translate(-1992)"/><path class="al" d="M3491.585,320.266a1.119,1.119,0,0,1-1.047-.747.76.76,0,0,1,.517-.188,1.26,1.26,0,0,1,.533.13,1.315,1.315,0,0,1,.8-.263,1.29,1.29,0,0,1,.308.034,1,1,0,0,1-.926,1.022A1.36,1.36,0,0,1,3491.585,320.266Z" transform="translate(-1992)"/><path class="aa" d="M3493.183,318.882a3.284,3.284,0,0,1-.679.487,2.465,2.465,0,0,1-.777.269,2.131,2.131,0,0,1-.818-.033,3.014,3.014,0,0,1-.769-.319,2.394,2.394,0,0,0,.354.234,2.177,2.177,0,0,0,.4.164,1.859,1.859,0,0,0,.423.078,2.144,2.144,0,0,0,.432-.018,2.24,2.24,0,0,0,.8-.3A2.361,2.361,0,0,0,3493.183,318.882Z" transform="translate(-1992)"/><rect class="l" width="8.605" height="1.76" transform="translate(1237.385 333.4)"/><rect class="l" width="8.605" height="1.76" transform="translate(1251.145 333.4)"/><rect class="am" width="3.48" height="1.714" transform="translate(1527.692 279.341)"/><rect class="an" width="3.778" height="1.714" transform="translate(1535.801 275.25)"/><rect class="am" width="3.695" height="0.972" transform="translate(1531.609 291.51)"/><rect class="am" width="3.48" height="1.104" transform="translate(1560.405 276.965)"/><rect class="am" width="3.48" height="1.104" transform="translate(1560.405 291.818)"/><rect class="am" width="3.695" height="1.896" transform="translate(1564.323 281.055)"/><rect class="l" width="3.778" height="1.208" transform="translate(1568.514 274.9)"/><rect class="o" width="14.947" height="3.702" transform="translate(1545.18 335.955)"/><rect class="j" width="20.747" height="3.786" transform="translate(1543.021 339.657)"/><rect class="l" width="18.46" height="3.488" transform="translate(1543.021 332.467)"/><rect class="am" width="1.102" height="3.488" transform="translate(1558.828 332.467)"/><rect class="am" width="1.102" height="3.488" transform="translate(1544.008 332.467)"/><rect class="l" width="1.205" height="3.786" transform="translate(1560.783 339.657)"/><rect class="l" width="3.918" height="1.351" transform="translate(1374.075 273.289)"/><rect class="am" width="2.333" height="6.433" transform="translate(1379.4 277.289)"/><rect class="am" width="4.254" height="1.016" transform="translate(1383.203 271.649)"/><rect class="am" width="4.254" height="1.332" transform="translate(1383.203 289.204)"/><path class="c" d="M3408.107,356.934l2.29,32.717h-1.145l-3.625-32.363Z" transform="translate(-1992)"/><path class="c" d="M3384.063,356.934l-2.289,32.717h1.144l3.625-32.363Z" transform="translate(-1992)"/><path class="d" d="M3418.1,321.539s-18.3-.543-19.483-.458-2.279,3.892-2.279,3.892-5.346,19.831-5.239,20.377-4.987,13.324-4.987,13.324,4.394-.117,4.588,0,16.99-1.442,17.224-1.6a21.427,21.427,0,0,0,1.127-3.234c.038-.156,1.321-11.532,1.321-11.532l.662-6.273s2.527-5.382,2.566-5.4,2.372-4.73,2.527-4.964,2.566-2.845,2.643-3.078S3418.1,321.539,3418.1,321.539Z" transform="translate(-1992)"/><path class="e" d="M3418.1,321.539h0Zm0,0h0Zm0,0h0Zm0,0h0Zm0,0h0Zm0,0h0Zm-.01,0h0Zm0,0h0Zm-.014,0h0Zm-.014,0h0Zm-.036,0h0Zm-.025,0h0Zm-.006,0h0Zm-.013,0h0Zm-.013,0h0Zm-.006,0h0Zm-.012,0h0Zm-.022,0h0Zm-.03,0h0Zm-.024,0h0Zm-.006,0h0Zm-.01,0h0Zm-.068,0h0Zm-.03,0h0Zm-.02,0h0Zm-.039,0h0Zm-.025,0h0Zm-.015,0-.02,0,.02,0Zm-.023,0h0Zm-.022,0h0Zm-.045,0h0Zm-.036,0h0Zm-.013,0h0Zm-.026,0h0Zm-.013,0h0Zm-.013,0h0Zm-.023,0-.048,0,.048,0Zm-.053,0h0Zm-.013,0h0Zm-.026,0h0Zm-.045,0h0Zm-.04,0h0Zm-.077,0h0Zm-.165,0h0Zm-.162,0h0Zm-.025,0h0Zm-.009,0h0Zm-.019,0h0Zm-.046,0h0Zm-.031,0Zm-.031,0h0Zm-.016,0-.068,0,.068,0Zm-.15,0h0Zm-.074,0h0Zm-.025,0Zm-.019,0-.046,0,.046,0Zm-.073,0h0Zm-.041,0h0Zm-.015,0h0Zm-.046,0h0Zm-.016,0h0Zm-.027,0Zm-.039,0h0Zm-.038,0h0Zm-.234-.006h0Zm-.247-.007h0Zm-.013,0h0Zm-.045,0h0Zm-.046,0h0Zm-.029,0h0Zm-.047,0h0Zm-.016,0h0Zm-.22-.006h0Zm-.025,0Zm-.04,0h0Z" transform="translate(-1992)"/><path class="f" d="M3386.385,357.983c.02-.053.042-.107.064-.164a114.37,114.37,0,0,1,11.635-.885h.019c-1.111.123-2.354.252-3.746.383-2.932.279-5.81.507-7.972.667Zm15.2-1.476v-.116c2.334-.612,4.924-1.9,4.634-4.609q.075-3,.066-5.61h2.082c-.087,1.047-.158,2.04-.223,2.962a43.622,43.622,0,0,1-.607,5.608,1.127,1.127,0,0,1-.754.8,35.149,35.149,0,0,1-5.2.967Zm7.051-13.141h-2.16a69.31,69.31,0,0,0,2.284-11.22c.881-6.2-.306-9.685-2.424-10.931,3.094.078,6.467.171,8.8.238h.066l.208.006h.208l.238.006h.009l.227.006h.256l.046,0h.044l.065,0h.091l.068,0h.177l.153,0h.009l.164,0h0l.068,0h.138l.048,0h.194l.02,0h.129l.067,0h.261l.025.028a1.119,1.119,0,0,0-.644.277C3411.352,327.243,3409.442,336.089,3408.64,343.366Z" transform="translate(-1992)"/><path class="g" d="M3382.767,359.372h0a1.136,1.136,0,0,1,1.056-1.207c1.956-.133,6.185-.436,10.534-.849,8.337-.791,11.351-1.438,12.43-1.776a1.127,1.127,0,0,0,.754-.8,43.622,43.622,0,0,0,.607-5.608c.545-7.678,1.443-20.339,9.331-27.29a1.138,1.138,0,0,1,1.5,1.71c-7.187,6.31-8.013,17.947-8.565,25.741-.315,4.443-.509,6.625-1.48,7.639-.468.489-1.339,1.4-14.014,2.618-4.5.432-8.924.749-10.946.887A1.138,1.138,0,0,1,3382.767,359.372Z" transform="translate(-1992)"/><path class="z" d="M3368.067,379.651l-.692,5.576-3.731.29.057-5.17Z" transform="translate(-1992)"/><path class="p" d="M3357.974,389.6l10.193.069a.392.392,0,0,0,.4-.392l0-.294a.406.406,0,0,0-.407-.4l-10.192-.07a.393.393,0,0,0-.4.393l0,.294A.407.407,0,0,0,3357.974,389.6Z" transform="translate(-1992)"/><path class="ai" d="M3368.028,385.288l.391,3.018c.049.372-.161.708-.44.707l-9.693-.066a.723.723,0,0,1-.637-.448,1.289,1.289,0,0,1,.26-1.342c.857-1.2,3.705-1.469,5.091-2.486l4.516.031A.6.6,0,0,1,3368.028,385.288Z" transform="translate(-1992)"/><path class="p" d="M3363.7,386.426h0a.2.2,0,0,0,.053-.245,1.906,1.906,0,0,0-2.006-1.225.164.164,0,0,0-.1.2v0c.012.09.076.15.143.14a1.642,1.642,0,0,1,1.753,1.063C3363.575,386.432,3363.643,386.462,3363.7,386.426Z" transform="translate(-1992)"/><path class="p" d="M3362.7,386.808h0a.2.2,0,0,0,.053-.245,1.907,1.907,0,0,0-2.006-1.226.166.166,0,0,0-.1.2v0c.013.091.076.151.143.14a1.645,1.645,0,0,1,1.754,1.063C3362.572,386.813,3362.64,386.843,3362.7,386.808Z" transform="translate(-1992)"/><path class="p" d="M3361.765,387.164h0a.2.2,0,0,0,.053-.246,1.908,1.908,0,0,0-2.007-1.225c-.069.011-.115.1-.1.2v0c.012.091.076.15.144.14a1.644,1.644,0,0,1,1.754,1.063C3361.64,387.17,3361.707,387.2,3361.765,387.164Z" transform="translate(-1992)"/><path class="b" d="M3385.287,333.783l-.616,6.428,2.449.468,1.348-2.548-.221-3.374-1.9-1.326Z" transform="translate(-1992)"/><path class="u" d="M3387.773,323.653s-2.486,6.483-2.486,10.13a5.067,5.067,0,0,0,3.181.623c1.879-.234.3-7.637.371-7.831A24.509,24.509,0,0,0,3387.773,323.653Z" transform="translate(-1992)"/><path class="z" d="M3373.795,379.771l-1.649,5.38-3.8.026.662-3.927Z" transform="translate(-1992)"/><path class="b" d="M3395.751,338.459l-4.564,6.9-6.067-1.2-10.3-7.7,1.806-2.677s9.648,5.8,10.469,5.958,3.059-5.08,3.059-5.08Z" transform="translate(-1992)"/><path class="p" d="M3362.9,389.7l10.192.069a.392.392,0,0,0,.4-.393l0-.293a.407.407,0,0,0-.407-.4l-10.192-.068a.391.391,0,0,0-.4.392l0,.294A.407.407,0,0,0,3362.9,389.7Z" transform="translate(-1992)"/><path class="aj" d="M3372.949,385.388l.39,3.017c.049.373-.161.709-.44.708l-9.693-.066a.72.72,0,0,1-.636-.448,1.288,1.288,0,0,1,.259-1.343c.857-1.2,3.707-1.468,5.092-2.485l4.515.03A.6.6,0,0,1,3372.949,385.388Z" transform="translate(-1992)"/><path class="p" d="M3368.622,386.526h0a.2.2,0,0,0,.053-.245,1.907,1.907,0,0,0-2.007-1.226c-.07.011-.115.1-.1.2v0c.012.091.076.151.144.14a1.644,1.644,0,0,1,1.753,1.063C3368.5,386.532,3368.563,386.561,3368.622,386.526Z" transform="translate(-1992)"/><path class="p" d="M3367.618,386.908h0a.2.2,0,0,0,.053-.245,1.907,1.907,0,0,0-2.006-1.227c-.07.012-.116.1-.1.2v0c.012.092.075.152.144.141a1.644,1.644,0,0,1,1.753,1.063C3367.493,386.913,3367.56,386.942,3367.618,386.908Z" transform="translate(-1992)"/><path class="p" d="M3366.685,387.263h0a.2.2,0,0,0,.053-.245,1.907,1.907,0,0,0-2.006-1.226.17.17,0,0,0-.1.2v0c.012.091.076.151.143.141a1.643,1.643,0,0,1,1.754,1.063C3366.559,387.269,3366.627,387.3,3366.685,387.263Z" transform="translate(-1992)"/><path class="q" d="M3373.339,388.405l-.251-1.94h0Z" transform="translate(-1992)"/><path class="ao" d="M3372.9,389.113h0l-2.587-.018c.685-2.242,1.856-2.638,2.6-2.638.063,0,.122,0,.178.008l.251,1.94a.635.635,0,0,1,.007.1C3373.348,388.836,3373.154,389.113,3372.9,389.113Z" transform="translate(-1992)"/><path class="ab" d="M3406.223,351.782c-.519-4.832-6.241-4.909-6.241-4.909l-3.078-.267-.075-.654s-21.226-2.527-24.128,7.1-5.1,28.681-5.1,28.681a7.4,7.4,0,0,0,6.6,0s5.379-20.458,7.394-22.464,16.488-2.336,16.488-2.336S3406.741,356.613,3406.223,351.782Z" transform="translate(-1992)"/><path class="ap" d="M3386.343,343.288s.5-17.61,1.43-19.635,4.22-2.416,4.22-2.416,8.577-1.274,10.806.833c.166.157,4.044,5.3,3.424,29.712,0,0-7.366-4.052-19.88-6.13Z" transform="translate(-1992)"/><path class="z" d="M3396.892,317.74v4.4a.628.628,0,0,1-.361.57,3.866,3.866,0,0,1-3.571.009.622.622,0,0,1-.3-.539V318.2Z" transform="translate(-1992)"/><path class="aa" d="M3396.892,321.118v-2.356l-4.232.466v2A7.281,7.281,0,0,0,3396.892,321.118Z" transform="translate(-1992)"/><rect class="l" width="23.587" height="3.273" transform="translate(1349.807 340.094)"/><rect class="k" width="23.587" height="3.273" transform="translate(1346.956 336.821)"/><path class="ab" d="M3382.753,346.434s-15.857-.5-19.459,2.908-1.187,29.073-.586,31.426c0,0,3.288,1.567,5.89.765s1.6-12.034,1.6-12.034-.3-10.731.1-12.235,5.905-2.607,5.905-2.607,8.506-5.917,8.006-5.917S3382.753,346.434,3382.753,346.434Z" transform="translate(-1992)"/><path class="c" d="M3378.527,331.371l-2.536-7.009a.472.472,0,0,0-.654-.263l-4.8,2.362a.541.541,0,0,0-.256.7l4.152,9.531a.6.6,0,0,0,.753.322l4.21-1.56Z" transform="translate(-1992)"/><path class="z" d="M3374.233,331.873a.369.369,0,0,1,.009-.055c.118-.457.247-.513.334-.511a.4.4,0,0,1,.006-.206c.214-.652.459-.061.459-.061a7.234,7.234,0,0,0,2.489,1.718l.643.14a14.723,14.723,0,0,1,.354-1.527s1.341,2.437,1.354,2.466a5.993,5.993,0,0,1-.963,1.437c-.295.328-.876,1.123-.914,1.186,0,0-1.393-.886-1.892-1.322a22.738,22.738,0,0,1-1.847-1.652.824.824,0,0,1-.206-.8A.738.738,0,0,1,3374.233,331.873Z" transform="translate(-1992)"/><path class="aa" d="M3374.242,331.836a1.523,1.523,0,0,0,.19.519,2.359,2.359,0,0,0,.327.447,2.665,2.665,0,0,0,.418.364c.074.055.156.1.233.15s.162.085.245.124c-.151-.105-.3-.208-.441-.323a4.313,4.313,0,0,1-.4-.368,3.386,3.386,0,0,1-.333-.426A2.2,2.2,0,0,1,3374.242,331.836Z" transform="translate(-1992)"/><path class="aa" d="M3374.056,332.686a1.564,1.564,0,0,0,.229.5,2.428,2.428,0,0,0,.362.422,2.757,2.757,0,0,0,.446.328c.078.05.162.087.242.131s.17.072.255.105c-.157-.093-.316-.183-.464-.287a4.345,4.345,0,0,1-.425-.337,3.215,3.215,0,0,1-.365-.4A2.183,2.183,0,0,1,3374.056,332.686Z" transform="translate(-1992)"/><path class="aa" d="M3374.576,331.307a1.566,1.566,0,0,0,.19.517,2.322,2.322,0,0,0,.327.448,2.722,2.722,0,0,0,.418.364c.075.055.155.1.232.15s.164.085.246.124c-.15-.106-.3-.208-.44-.324a3.925,3.925,0,0,1-.4-.368,3.089,3.089,0,0,1-.333-.425A2.229,2.229,0,0,1,3374.576,331.307Z" transform="translate(-1992)"/><path class="z" d="M3398.932,338.459l-4.563,6.9-6.067-1.2-10.3-7.7,1.806-2.677s9.648,5.8,10.47,5.958,3.059-5.08,3.059-5.08Z" transform="translate(-1992)"/><path class="u" d="M3402.845,326.761c-.5,2.736-1.808,9.071-3.7,12,0,0-4.577-.336-7.155-3.466,0,0,3.523-8.7,4.443-10.489.739-1.433,4.3-5.7,6.065-1.466A6.073,6.073,0,0,1,3402.845,326.761Z" transform="translate(-1992)"/><rect class="x" width="1.606" height="43.999" transform="translate(1346.956 345.653)"/><rect class="x" width="1.608" height="43.999" transform="translate(1362.119 345.653)"/><rect class="x" width="1.608" height="43.999" transform="translate(1407.982 345.653)"/><rect class="x" width="1.607" height="43.999" transform="translate(1423.146 345.653)"/><path class="y" d="M.707,0H85.915a.708.708,0,0,1,.708.708V2.1a.708.708,0,0,1-.708.708H.708A.708.708,0,0,1,0,2.1V.707A.707.707,0,0,1,.707,0Z" transform="translate(1342.654 343.366)"/><path class="c" d="M3400.64,313.945s1.464-5.244-1.377-7.367a7.694,7.694,0,0,0-8.123-.955c-2.167,1.091-3.617,5.179-2.773,7.594l7.118-1.936Z" transform="translate(-1992)"/><path class="aa" d="M3389.768,313.89a1.078,1.078,0,1,1-1.454-.85A1.207,1.207,0,0,1,3389.768,313.89Z" transform="translate(-1992)"/><path class="z" d="M3389.887,317.836a5.619,5.619,0,0,1-.406-.93,10.482,10.482,0,0,1-.513-2.6c-.013-.173-.036-.344-.062-.515a5.619,5.619,0,1,1,11.168-.76,1.212,1.212,0,0,1,1.095-.065,1.7,1.7,0,0,1-1.406,3,1.021,1.021,0,0,1-.248-.164,5.271,5.271,0,0,1-5.328,4.738,5.035,5.035,0,0,1-3.392-1.492,2.48,2.48,0,0,1-.187-.182A4.855,4.855,0,0,1,3389.887,317.836Z" transform="translate(-1992)"/><path class="aa" d="M3393.2,312.845c-.037.32-.065.634-.107.939a2.129,2.129,0,0,1-.241.82l-.028.032a.373.373,0,0,1-.032.039.742.742,0,0,0-.095.114.64.64,0,0,0-.108.288.66.66,0,0,0,.2.539,1.077,1.077,0,0,0,.947.268,1.338,1.338,0,0,1-.757-.433.432.432,0,0,1-.09-.332.369.369,0,0,1,.068-.148.517.517,0,0,1,.058-.066l.044-.051.05-.058a1.255,1.255,0,0,0,.194-.5,2.6,2.6,0,0,0,.039-.494A3.357,3.357,0,0,0,3393.2,312.845Z" transform="translate(-1992)"/><path class="w" d="M3395.021,313.423a.49.49,0,1,0,.508-.474A.491.491,0,0,0,3395.021,313.423Z" transform="translate(-1992)"/><path class="w" d="M3390.8,313.549a.491.491,0,1,0,.508-.474A.491.491,0,0,0,3390.8,313.549Z" transform="translate(-1992)"/><path class="c" d="M3394.5,312.265a5.256,5.256,0,0,1,.728-.112,2.471,2.471,0,0,1,.68.042,2.314,2.314,0,0,1,.639.227c.11.044.2.12.313.177s.2.142.32.206a2.089,2.089,0,0,0-.19-.345,1.714,1.714,0,0,0-.274-.291,1.587,1.587,0,0,0-.733-.354,1.651,1.651,0,0,0-.812.041A1.51,1.51,0,0,0,3394.5,312.265Z" transform="translate(-1992)"/><path class="c" d="M3392.326,312.331a1.5,1.5,0,0,0-.685-.39,1.64,1.64,0,0,0-.812-.016,1.59,1.59,0,0,0-.722.377,1.637,1.637,0,0,0-.264.3,1.986,1.986,0,0,0-.18.35c.117-.068.211-.149.314-.217s.2-.137.307-.186a2.309,2.309,0,0,1,.631-.246,2.452,2.452,0,0,1,.678-.062A5.031,5.031,0,0,1,3392.326,312.331Z" transform="translate(-1992)"/><path class="c" d="M3399.989,313.1a.853.853,0,0,1,.581-.233l-.072-1.72-.486-1.055s-1.962-2.87-2.032-2.942-1.621-1.039-1.716-1.089-2.336.189-2.336.189-3.879-.972-3.308,1.108,3.384,3.279,3.535,3.194a3.417,3.417,0,0,1-.436-1.788C3395.647,311.055,3399.4,312.835,3399.989,313.1Z" transform="translate(-1992)"/><path class="p" d="M3391.819,316.52a1.46,1.46,0,0,0,2.811.183Z" transform="translate(-1992)"/><path class="aq" d="M.708,0H24.253a.708.708,0,0,1,.708.708V2.1a.708.708,0,0,1-.708.708H.707A.707.707,0,0,1,0,2.1V.708A.708.708,0,0,1,.708,0Z" transform="translate(1404.316 343.366)"/><rect class="an" width="11.158" height="2.182" transform="translate(1348.076 337.328)"/><rect class="ar" width="1.205" height="3.273" transform="translate(1367.204 340.094)"/><path class="as" d="M1.2,0H458.045a1.194,1.194,0,0,1,1.194,1.194v0a1.194,1.194,0,0,1-1.194,1.194H1.2A1.2,1.2,0,0,1,0,1.2v0A1.2,1.2,0,0,1,1.2,0Z" transform="translate(1174.38 389.691)"/><rect class="x" width="1.607" height="43.999" transform="translate(1444.654 345.653)"/><rect class="x" width="1.607" height="43.999" transform="translate(1459.817 345.653)"/><rect class="x" width="1.608" height="43.999" transform="translate(1505.678 345.653)"/><rect class="x" width="1.607" height="43.999" transform="translate(1520.842 345.653)"/><path class="y" d="M.708,0H85.917a.708.708,0,0,1,.708.708V2.1a.708.708,0,0,1-.708.708H.709A.709.709,0,0,1,0,2.1V.708A.708.708,0,0,1,.708,0Z" transform="translate(1440.351 343.366)"/><path class="aq" d="M.708,0H24.253a.709.709,0,0,1,.709.709V2.1a.708.708,0,0,1-.708.708H.709A.709.709,0,0,1,0,2.1V.708A.708.708,0,0,1,.708,0Z" transform="translate(1501.909 343.366)"/><path class="at" d="M3616.018,346.172h-.011a.71.71,0,0,0,.71-.708v-1.39a.709.709,0,0,0-.71-.708h.011a.709.709,0,0,1,.709.708v1.39A.71.71,0,0,1,3616.018,346.172Z" transform="translate(-1992)"/><path class="aq" d="M.708,0H24.241a.708.708,0,0,1,.708.708V2.1a.708.708,0,0,1-.708.708H.709A.709.709,0,0,1,0,2.1V.708A.708.708,0,0,1,.708,0Z" transform="translate(1599.768 343.366)"/></g></svg>