<svg xmlns="http://www.w3.org/2000/svg" width="95.999" height="96" viewBox="0 0 95.999 96"><defs><style>.a{fill:#17224d;fill-rule:evenodd;}</style></defs><g transform="translate(-7367.986 -649.245)"><path class="a" d="M7423.725,744.62q-.6.1-1.2.18Q7423.125,744.717,7423.725,744.62Zm0,0"/><path class="a" d="M7424.685,744.456c-.191.035-.382.067-.573.1C7424.3,744.523,7424.494,744.491,7424.685,744.456Zm0,0"/><path class="a" d="M7421.449,744.933q-.7.08-1.412.14Q7420.746,745.013,7421.449,744.933Zm0,0"/><path class="a" d="M7422.371,744.821q-.338.045-.677.084Q7422.033,744.866,7422.371,744.821Zm0,0"/><path class="a" d="M7425.992,744.2c-.168.036-.338.072-.507.106C7425.654,744.269,7425.824,744.233,7425.992,744.2Zm0,0"/><path class="a" d="M7429.235,743.391c-.136.039-.272.076-.409.114C7428.963,743.467,7429.1,743.43,7429.235,743.391Zm0,0"/><path class="a" d="M7428.254,743.659c-.147.039-.3.079-.445.116C7427.958,743.738,7428.107,743.7,7428.254,743.659Zm0,0"/><path class="a" d="M7426.971,743.98l-.473.106Zm0,0"/><path class="a" d="M7420.022,745.074c-.253.021-.5.04-.759.057C7419.517,745.114,7419.769,745.095,7420.022,745.074Zm0,0"/><path class="a" d="M7463.985,697.245a48,48,0,1,0-48,48c.282,0,.562-.006.843-.011V707.868h-10.312V695.85h10.312v-8.844c0-10.257,6.262-15.84,15.411-15.84a84.725,84.725,0,0,1,9.245.473v10.72h-6.309c-4.977,0-5.941,2.365-5.941,5.836v7.655h11.9l-1.551,12.018h-10.351V743.39A48.025,48.025,0,0,0,7463.985,697.245Zm0,0"/><path class="a" d="M7419.157,745.138c-.5.032-1,.058-1.5.075C7418.156,745.2,7418.658,745.17,7419.157,745.138Zm0,0"/><path class="a" d="M7417.627,745.214c-.265.009-.531.015-.8.02C7417.1,745.229,7417.362,745.223,7417.627,745.214Zm0,0"/></g></svg>