<svg xmlns="http://www.w3.org/2000/svg" width="96.003" height="95.995" viewBox="0 0 96.003 95.995"><defs><style>.a{fill:#17224d;fill-rule:evenodd;}</style></defs><path class="a" d="M7553.487,736.67c-15.309,0-30.246.869-32.293-17.249-.854-7.539-.623-20.493-.623-28.709,0-14.731-.923-30.246,17.249-32.3,7.544-.859,20.5-.633,28.714-.633,14.73,0,30.246-.918,32.3,17.253.947,8.344.873,36.308-.025,44.7-1.06,9.841-6.813,15.221-16.6,16.325-7.55.854-20.5.619-28.73.619ZM7579.9,671.8c0,7.069,11.412,7.535,11.412-.333,0-7.049-11.412-7.535-11.412.333Zm-44.343,26.408c0,12.266,11.215,23.477,23.482,23.477h1.953c12.272,0,23.473-11.211,23.473-23.477v-1.954c0-12.271-11.2-23.472-23.473-23.472h-1.953c-12.267,0-23.482,11.2-23.482,23.472v1.954Zm40.431.658c0-3.436.053-5.576-1.615-8.816-2.376-4.624-7.986-8.791-12.733-8.791-5.075,0-8.958.623-12.963,4.634-2.229,2.218-4.639,6.606-4.639,9.709,0,5.08.619,8.958,4.639,12.968a19.628,19.628,0,0,0,4.153,3.023,16.434,16.434,0,0,0,14.367,0c4.624-2.385,8.791-8,8.791-12.727Zm-63.894,3.254c0,8.958-.3,21.509,3.686,28.906a32.291,32.291,0,0,0,4.536,6.224,28.658,28.658,0,0,0,6.332,4.437c9.125,4.457,26.918,3.461,37.933,3.461,12.462,0,26.471.8,35.3-8.055l1.316-1.62a24.765,24.765,0,0,0,5.787-13.12c1.374-10.019,1.345-40.549-.04-50.538a25.061,25.061,0,0,0-21.513-21.514c-10.1-1.414-40.79-1.394-50.828,0a25.069,25.069,0,0,0-19.044,13.562C7511.083,673.027,7512.094,691.055,7512.094,702.119Z" transform="translate(-7511.996 -649.247)"/></svg>