<svg xmlns="http://www.w3.org/2000/svg" width="24" height="18.461" viewBox="0 0 24 18.461"><defs><style>.a{fill:#e2f0ff;fill-rule:evenodd;}</style></defs><path class="a" d="M7716.314,449.529a2.641,2.641,0,0,0-.314,1.256v12.923a2.525,2.525,0,0,0,.277,1.181l7.661-7.661-7.624-7.7Zm23.372,0-7.625,7.7,7.662,7.661a2.525,2.525,0,0,0,.277-1.181V450.785a2.641,2.641,0,0,0-.314-1.256Zm-2.455-1.513a2.477,2.477,0,0,1,1.107.24c-9.481,9.587-7.8,7.9-9.692,9.784a.924.924,0,0,1-1.292,0c-1.888-1.888-.214-.2-9.693-9.784a2.481,2.481,0,0,1,1.108-.24Zm-6.48,10.522,7.661,7.662a2.53,2.53,0,0,1-1.181.277h-18.462a2.524,2.524,0,0,1-1.181-.277l7.661-7.662.775.794a2.764,2.764,0,0,0,3.951,0Z" transform="translate(-7716 -448.016)"/></svg>