<svg xmlns="http://www.w3.org/2000/svg" width="144" height="80.162" viewBox="0 0 144 80.162"><defs><style>.a{fill:#e2f0ff;fill-rule:evenodd;}</style></defs><path class="a" d="M149.386,79.456a4.383,4.383,0,0,0,1.709-.236.91.91,0,0,0,.5-.913,1.118,1.118,0,0,0-.648-.928,12.368,12.368,0,0,0-1.974-.9,20.1,20.1,0,0,1-1.871-.8,5.5,5.5,0,0,1-1.429-.987,3.991,3.991,0,0,1-.913-1.37,5.07,5.07,0,0,1-.324-1.915,4.143,4.143,0,0,1,1.62-3.447,7.053,7.053,0,0,1,4.449-1.266,14.254,14.254,0,0,1,2.71.25,12.641,12.641,0,0,1,2.062.545l-.766,3.418a16.128,16.128,0,0,0-1.664-.472,9.077,9.077,0,0,0-2.018-.206q-2.062,0-2.062,1.149a1.181,1.181,0,0,0,.088.471,1.01,1.01,0,0,0,.353.4,5,5,0,0,0,.722.413c.3.152.693.314,1.164.491a17.9,17.9,0,0,1,2.386,1.055,5.718,5.718,0,0,1,1.488,1.12,3.47,3.47,0,0,1,.766,1.34,5.94,5.94,0,0,1,.221,1.7,3.937,3.937,0,0,1-1.724,3.471,8.614,8.614,0,0,1-4.875,1.174,13.763,13.763,0,0,1-5.332-.943l.736-3.565a14.448,14.448,0,0,0,2.3.693,11.168,11.168,0,0,0,2.327.25Zm85.839-40.151-4.093,1.464-.349-.747-1.5-.128-.214.224,1.29.305.188.557s2.914,6.091,2.486,9.071a3.758,3.758,0,0,1-3.637,0L228.91,41.9v-.679l-2.706-.61.191.471,2.018.656-.934.333L216.025,45.6,204.57,42.075l-7.746-2.77,19.2-7.386,19.2,7.386Zm-19.2,8.51L204.57,44.289v5.825c0,.02-.008.042-.008.063,0,2.723,5.131,4.93,11.459,4.93s11.458-2.207,11.458-4.93V44.289l-11.454,3.526ZM251.5,108.532a4.4,4.4,0,0,0,1.7-.235.906.906,0,0,0,.5-.909,1.115,1.115,0,0,0-.645-.924,12.032,12.032,0,0,0-1.965-.895c-.682-.254-1.308-.52-1.863-.792a5.432,5.432,0,0,1-1.423-.983,3.967,3.967,0,0,1-.909-1.363,5.086,5.086,0,0,1-.323-1.907,4.13,4.13,0,0,1,1.613-3.432,7.029,7.029,0,0,1,4.43-1.261,14.377,14.377,0,0,1,2.7.249,12.363,12.363,0,0,1,2.053.543l-.763,3.4a16.069,16.069,0,0,0-1.657-.469,9,9,0,0,0-2.01-.205q-2.052,0-2.053,1.143a1.223,1.223,0,0,0,.088.47,1,1,0,0,0,.352.4,5.126,5.126,0,0,0,.719.411c.3.147.691.315,1.158.489a18.01,18.01,0,0,1,2.377,1.051,5.719,5.719,0,0,1,1.481,1.114,3.445,3.445,0,0,1,.763,1.335,5.986,5.986,0,0,1,.22,1.7,3.916,3.916,0,0,1-1.717,3.457,8.584,8.584,0,0,1-4.854,1.168,14.067,14.067,0,0,1-3.417-.352,13.493,13.493,0,0,1-1.892-.587l.733-3.549a14.314,14.314,0,0,0,2.288.69,11.262,11.262,0,0,0,2.317.249Zm-7.509-8.419q-.587-.147-1.379-.308a8.559,8.559,0,0,0-1.7-.161,7.862,7.862,0,0,0-.983.073,5.728,5.728,0,0,0-.865.162v11.792H234.7V97.063a25.783,25.783,0,0,1,2.772-.778,16.106,16.106,0,0,1,3.564-.367c.235,0,.521.017.851.045s.665.068,1,.117.665.108,1,.176a4.617,4.617,0,0,1,.851.249l-.733,3.608Zm-12.672,3.814a10.076,10.076,0,0,1-.528,3.329,7.238,7.238,0,0,1-1.525,2.581,6.871,6.871,0,0,1-2.391,1.658,8.543,8.543,0,0,1-6.219,0,6.851,6.851,0,0,1-2.39-1.658,7.581,7.581,0,0,1-1.555-2.581,9.542,9.542,0,0,1-.557-3.329,9.255,9.255,0,0,1,.571-3.315,7.529,7.529,0,0,1,1.584-2.552,7.109,7.109,0,0,1,2.406-1.643,8.233,8.233,0,0,1,6.1,0,6.969,6.969,0,0,1,2.391,1.643,7.459,7.459,0,0,1,1.554,2.552,9.419,9.419,0,0,1,.558,3.315Zm-4.459,0a5.492,5.492,0,0,0-.807-3.183,2.637,2.637,0,0,0-2.3-1.159,2.675,2.675,0,0,0-2.317,1.159,5.415,5.415,0,0,0-.822,3.183,5.57,5.57,0,0,0,.822,3.212,2.658,2.658,0,0,0,2.317,1.188,2.621,2.621,0,0,0,2.3-1.188,5.65,5.65,0,0,0,.807-3.212ZM204.306,92.4l4.371-.7v4.546h5.25v3.638h-5.25v5.426c0,1.772.44,3.022,2.434,3.022a8.352,8.352,0,0,0,1.452-.133,7.418,7.418,0,0,0,1.364-.366l.616,3.4a12.361,12.361,0,0,1-1.76.557,10.373,10.373,0,0,1-2.376.235,7.847,7.847,0,0,1-2.963-.485,4.644,4.644,0,0,1-1.877-1.349,5.043,5.043,0,0,1-.982-2.1,12.367,12.367,0,0,1-.279-2.728V92.4Zm-3.96,18.743a25.364,25.364,0,0,1-6.571.881,8.836,8.836,0,0,1-3.271-.528,4.967,4.967,0,0,1-2.068-1.482,5.78,5.78,0,0,1-1.085-2.273,12.324,12.324,0,0,1-.323-2.9v-8.6H191.4v8.067a6.276,6.276,0,0,0,.558,3.051,2.218,2.218,0,0,0,2.082.938c.313,0,.648-.016,1-.044s.665-.063.939-.1V96.241h4.371v14.9ZM174,92.4l4.371-.7v4.546h5.251v3.638h-5.251v5.426a4.323,4.323,0,0,0,.484,2.2,2.077,2.077,0,0,0,1.951.822,8.36,8.36,0,0,0,1.452-.133,7.462,7.462,0,0,0,1.364-.366l.616,3.4a12.361,12.361,0,0,1-1.76.557,10.373,10.373,0,0,1-2.376.235,7.847,7.847,0,0,1-2.963-.485,4.638,4.638,0,0,1-1.877-1.349,5.044,5.044,0,0,1-.983-2.1,12.367,12.367,0,0,1-.279-2.728V92.4ZM245.858,67.47c1.07,11.46-1.912,20.941-14.257,20.941a18.137,18.137,0,0,1-5.488-.849c-4.423-1.416-6.161-4.413-6.161-6.774V69.921c0-4.035,3-6.788,8.492-7.958a30.523,30.523,0,0,1,5.509-.645,24.391,24.391,0,0,1,5.239.391c3.864.755,6.666,2.614,6.666,5.761Zm-1.885,0c0-1.971-2.153-3.212-5.12-3.792a22.7,22.7,0,0,0-4.856-.36,28.634,28.634,0,0,0-5.184.615c-4.672.994-6.976,3.1-6.976,5.988V80.788c0,1.54,1.154,3.68,4.814,4.852a15.646,15.646,0,0,0,4.928.77c10.566-.138,13.385-8.8,12.394-18.94Zm18.145,0c-1.071,11.46,1.912,20.941,14.257,20.941a18.137,18.137,0,0,0,5.488-.849c4.423-1.416,6.162-4.413,6.162-6.774V69.921c0-3.378-2.1-5.857-6.01-7.261V59.747l-4.389.707v1.17a30.919,30.919,0,0,0-3.6-.306,24.4,24.4,0,0,0-5.24.391c-3.863.755-6.666,2.614-6.666,5.761Zm1.886,0c0-1.971,2.151-3.212,5.119-3.792a22.7,22.7,0,0,1,4.857-.36,28.637,28.637,0,0,1,3.646.332v3.816a8.872,8.872,0,0,0-1.458-.5,6.892,6.892,0,0,0-1.636-.177,7.259,7.259,0,0,0-2.931.56,5.8,5.8,0,0,0-2.165,1.62,7.4,7.4,0,0,0-1.355,2.578,11.421,11.421,0,0,0-.472,3.4,9.671,9.671,0,0,0,.545,3.343,6.966,6.966,0,0,0,1.576,2.534,6.847,6.847,0,0,0,2.534,1.605,9.721,9.721,0,0,0,3.417.56q.8,0,1.665-.073t1.709-.192q.839-.117,1.605-.28t1.355-.338V64.793c2.759,1.146,4.124,2.906,4.124,5.128V80.788c0,1.54-1.154,3.68-4.814,4.852a15.648,15.648,0,0,1-4.929.77c-10.565-.138-13.384-8.8-12.392-18.94Zm-.463-3.367a20.325,20.325,0,0,0-8.807-1.784c-4.05,0-7.63.93-9.8,2.353a4.477,4.477,0,0,1,.858,1.982,16.312,16.312,0,0,1,8.918-2.394,17.339,17.339,0,0,1,7.659,1.665,4.737,4.737,0,0,1,1.172-1.822Zm8.546,10.639q0-4.242,3.123-4.242a5.183,5.183,0,0,1,1.341.177,3.808,3.808,0,0,1,1.075.442V79.1c-.216.04-.491.074-.825.1s-.7.044-1.09.044A3.156,3.156,0,0,1,273,78.013a5.385,5.385,0,0,1-.913-3.271ZM258.476,71q-.59-.147-1.385-.31a8.555,8.555,0,0,0-1.708-.162,7.944,7.944,0,0,0-.987.074,5.819,5.819,0,0,0-.87.162V82.608h-4.389V67.937a26.531,26.531,0,0,1,2.784-.781,16.065,16.065,0,0,1,3.579-.368q.354,0,.855.044t1,.118c.334.049.667.108,1,.177a4.766,4.766,0,0,1,.855.25L258.476,71ZM224.6,74.978a10.1,10.1,0,0,0,.486,3.182,6.718,6.718,0,0,0,1.5,2.548,7.071,7.071,0,0,0,2.562,1.694,9.756,9.756,0,0,0,3.639.619,15.46,15.46,0,0,0,1.65-.089q.823-.088,1.546-.221a12.231,12.231,0,0,0,1.311-.309,6.066,6.066,0,0,0,.943-.354l-.589-3.564a8.942,8.942,0,0,1-1.9.545,12.7,12.7,0,0,1-2.371.221,5.086,5.086,0,0,1-3.005-.8A2.917,2.917,0,0,1,229.1,76.3h9.958q.028-.354.059-.81c.02-.305.029-.585.029-.84q0-3.918-1.915-5.936A6.842,6.842,0,0,0,232.02,66.7a7.438,7.438,0,0,0-2.755.53,6.949,6.949,0,0,0-2.372,1.561,7.747,7.747,0,0,0-1.664,2.578,9.481,9.481,0,0,0-.633,3.609ZM234.907,73.3a4.547,4.547,0,0,0-.192-1.09,2.731,2.731,0,0,0-.5-.943,2.655,2.655,0,0,0-.855-.677,2.782,2.782,0,0,0-1.282-.266,2.938,2.938,0,0,0-1.266.251,2.6,2.6,0,0,0-.884.663,2.968,2.968,0,0,0-.545.957,6.261,6.261,0,0,0-.28,1.105Zm-31.4-5.657a24.517,24.517,0,0,1,2.887-.6,23.786,23.786,0,0,1,3.712-.279,9.056,9.056,0,0,1,3.284.515,4.936,4.936,0,0,1,2.077,1.459,5.668,5.668,0,0,1,1.09,2.239,11.906,11.906,0,0,1,.325,2.886v8.75h-4.39V74.389a5.919,5.919,0,0,0-.56-3,2.283,2.283,0,0,0-2.092-.884q-.471,0-1,.044t-.943.1V82.608H203.5V67.642Zm-10.485,11.9q.648,0,1.238-.029a8.773,8.773,0,0,0,.942-.088V76.1a7.817,7.817,0,0,0-.8-.118,8.682,8.682,0,0,0-.972-.059,8.546,8.546,0,0,0-1.164.074,3.038,3.038,0,0,0-.958.279,1.647,1.647,0,0,0-.647.56,1.553,1.553,0,0,0-.236.884,1.507,1.507,0,0,0,.692,1.429,3.829,3.829,0,0,0,1.9.4ZM192.664,66.7a10.192,10.192,0,0,1,3.241.441,5.052,5.052,0,0,1,2.077,1.267,4.66,4.66,0,0,1,1.1,2,9.874,9.874,0,0,1,.324,2.621v9.133q-.942.207-2.622.487a25.26,25.26,0,0,1-4.065.279A12.871,12.871,0,0,1,190,82.667a5.914,5.914,0,0,1-2.107-.869,3.972,3.972,0,0,1-1.355-1.576,5.444,5.444,0,0,1-.471-2.386,4.513,4.513,0,0,1,.545-2.3,4.194,4.194,0,0,1,1.458-1.5,6.6,6.6,0,0,1,2.092-.81,11.728,11.728,0,0,1,2.445-.25,13.913,13.913,0,0,1,1.517.073,6.773,6.773,0,0,1,1.075.192v-.412a2.429,2.429,0,0,0-.677-1.8,3.286,3.286,0,0,0-2.357-.677,15,15,0,0,0-2.209.162,9.431,9.431,0,0,0-1.886.457l-.56-3.536q.384-.118.958-.25t1.252-.236q.678-.1,1.429-.176t1.517-.074ZM183.413,71q-.588-.147-1.384-.31a8.565,8.565,0,0,0-1.709-.162,7.958,7.958,0,0,0-.987.074,5.775,5.775,0,0,0-.869.162V82.608h-4.389V67.937a26.437,26.437,0,0,1,2.783-.781,16.081,16.081,0,0,1,3.58-.368c.236,0,.52.015.854.044s.668.069,1,.118.668.108,1,.177a4.765,4.765,0,0,1,.855.25L183.413,71Zm-23.45-7.748,4.389-.707v4.566h5.274v3.653h-5.274v5.451a4.335,4.335,0,0,0,.486,2.209,2.089,2.089,0,0,0,1.96.825,8.329,8.329,0,0,0,1.458-.133,7.505,7.505,0,0,0,1.37-.368l.619,3.417a12.518,12.518,0,0,1-1.768.56,10.315,10.315,0,0,1-2.387.236,7.859,7.859,0,0,1-2.975-.486,4.674,4.674,0,0,1-1.886-1.355,5.046,5.046,0,0,1-.986-2.107,12.41,12.41,0,0,1-.28-2.74Z" transform="translate(-144.025 -31.919)"/></svg>