<svg xmlns="http://www.w3.org/2000/svg" width="24" height="24" viewBox="0 0 24 24"><defs><style>.a{fill:#e2f0ff;fill-rule:evenodd;}</style></defs><path class="a" d="M7739.381,367.538l-2.982,2.984a2.162,2.162,0,0,1-2.984,0l-.5-.5,5.966-5.966.5.5a2.107,2.107,0,0,1,0,2.983Zm-14.123,14.128-2.983,2.984a2.163,2.163,0,0,1-2.984,0l-.5-.5,5.967-5.966.5.5a2.108,2.108,0,0,1,0,2.983Zm6.638-12.609,5.953-5.952a7.548,7.548,0,0,0-10.309.366l-9.333,9.336a7.592,7.592,0,0,0-.366,10.31l5.953-5.953a1.582,1.582,0,0,1,.108-2.1l5.9-5.9A1.583,1.583,0,0,1,7731.9,369.057Z" transform="translate(-7716 -361.247)"/></svg>