<svg xmlns="http://www.w3.org/2000/svg" width="96" height="96" viewBox="0 0 96 96"><defs><style>.a{fill:#17224d;fill-rule:evenodd;}</style></defs><path class="a" d="M7704,649.245a48,48,0,1,0,48,48,48,48,0,0,0-48-48Zm21.916,37.425q.031.708.032,1.424c0,14.558-11.082,31.346-31.347,31.347h0a31.19,31.19,0,0,1-16.888-4.949,22.381,22.381,0,0,0,2.628.152,22.1,22.1,0,0,0,13.684-4.716,11.03,11.03,0,0,1-10.293-7.652,10.989,10.989,0,0,0,4.976-.189,11.02,11.02,0,0,1-8.838-10.8c0-.05,0-.094,0-.14a10.934,10.934,0,0,0,4.99,1.377,11.026,11.026,0,0,1-3.411-14.708,31.274,31.274,0,0,0,22.71,11.511,11.023,11.023,0,0,1,18.774-10.047,22.1,22.1,0,0,0,7-2.674,11.066,11.066,0,0,1-4.845,6.094,21.99,21.99,0,0,0,6.326-1.735A22.4,22.4,0,0,1,7725.916,686.67Z" transform="translate(-7656 -649.245)"/></svg>